<svg class="icon icon-heart" xmlns:dc="http://purl.org/dc/elements/1.1/" xmlns:cc="http://creativecommons.org/ns#" xmlns:rdf="http://www.w3.org/1999/02/22-rdf-syntax-ns#" xmlns:svg="http://www.w3.org/2000/svg" xmlns="http://www.w3.org/2000/svg" xmlns:sodipodi="http://sodipodi.sourceforge.net/DTD/sodipodi-0.dtd" xmlns:inkscape="http://www.inkscape.org/namespaces/inkscape" version="1.1" x="0px" y="0px" viewBox="0 0 100 90"><g transform="translate(0,-952.36218)"><path style="text-indent:0;text-transform:none;direction:ltr;block-progression:tb;baseline-shift:baseline;color:#000000;enable-background:accumulate;" d="m 28.216626,963.36631 c -6.1854,0 -12.368201,2.342 -17.093801,7 -9.4511997,9.3158 -9.4395997,24.49 0,33.81239 l 36.75,36.3126 a 3.0003,3.0003 0 0 0 4.2188,0 c 12.2647,-12.0891 24.5164,-24.1607 36.7812,-36.25 9.4512,-9.31589 9.4512,-24.52789 0,-33.84379 -9.4512,-9.3158 -24.7362,-9.3161 -34.1875,0 l -4.6563,4.5938 -4.7187,-4.625 c -4.7256,-4.658 -10.908399,-7.0001 -17.093699,-7 z m 0,5.9687 c 4.6526,0 9.2959,1.7847 12.874999,5.3125 l 6.8124,6.6875 a 3.0003,3.0003 0 0 0 4.2188,0 l 6.7812,-6.6563 c 7.1582,-7.0557 18.592,-7.0555 25.75,0 7.1581,7.0556 7.1581,18.2258 0,25.2813 -11.5562,11.39089 -23.0999,22.76549 -34.6562,34.15629 l -34.6562,-34.18759 c -7.1535997,-7.0647 -7.1580997,-18.2257 0,-25.2812 3.579001,-3.5278 8.222301,-5.3125 12.875001,-5.3125 z" fill-opacity="1" stroke="none" marker="none" visibility="visible" display="inline" overflow="visible"/></g></svg>
