<?xml version="1.0" encoding="UTF-8"?>
<svg viewBox="0 0 606 239" version="1.1" xmlns="http://www.w3.org/2000/svg" xmlns:xlink="http://www.w3.org/1999/xlink">
    <defs>
        <filter x="-50%" y="-50%" width="200%" height="200%" filterUnits="objectBoundingBox" id="filter-1">
            <feOffset dx="1" dy="1" in="SourceAlpha" result="shadowOffsetOuter1"></feOffset>
            <feColorMatrix values="0 0 0 0 1   0 0 0 0 1   0 0 0 0 1  0 0 0 0.323001585 0" type="matrix" in="shadowOffsetOuter1" result="shadowMatrixOuter1"></feColorMatrix>
            <feMerge>
                <feMergeNode in="shadowMatrixOuter1"></feMergeNode>
                <feMergeNode in="SourceGraphic"></feMergeNode>
            </feMerge>
        </filter>
    </defs>
    <g id="Page-1" stroke="none" stroke-width="1" fill="none" fill-rule="evenodd">
        <g id="Artboard" transform="translate(-231.000000, -224.000000)" fill="#FFFFFF">
            <g id="logo" filter="url(#filter-1)" transform="translate(231.000000, 224.000000)">
                <path d="M292.595078,40.128 C296.963078,40.128 302.675078,39.568 308.947078,38.784 C307.155078,45.728 303.571078,55.808 300.435078,64.32 C292.259078,86.832 288.227078,98.704 285.763078,108 C289.123078,113.488 293.155078,116.624 298.307078,117.408 C300.323078,104.752 303.571078,91.872 310.067078,72.048 C313.427078,61.856 319.475078,45.504 323.731078,36.992 C328.659078,36.432 333.587078,36.096 338.291078,36.096 C340.979078,36.096 345.123078,36.32 348.931078,36.656 C347.699078,29.824 345.683078,25.344 340.195078,25.344 C336.275078,25.344 310.627078,28.48 295.283078,28.48 C290.243078,28.48 286.211078,28.144 284.307078,27.248 C283.747078,28.368 283.299078,30.384 283.299078,31.504 C283.299078,36.32 286.659078,40.128 292.595078,40.128 Z M331.881231,106.096 C331.993231,108.448 334.345231,113.376 335.353231,113.376 C335.913231,113.376 337.033231,112.256 337.481231,111.248 C344.201231,95.456 356.073231,79.104 366.713231,71.152 C368.281231,69.92 370.633231,68.464 371.081231,68.464 C371.193231,68.464 371.529231,68.8 371.529231,68.912 C364.249231,83.584 358.873231,97.696 358.873231,102.064 C358.873231,105.536 361.897231,109.12 364.921231,109.12 C367.273231,109.12 375.785231,105.088 375.785231,103.968 C375.785231,103.632 375.673231,103.296 375.001231,102.176 C374.665231,102.176 373.321231,103.072 371.081231,103.072 C369.625231,103.072 369.289231,102.624 369.289231,101.168 C369.289231,95.12 381.049231,74.288 390.233231,64.208 C386.873231,59.952 381.945231,57.152 378.025231,57.152 C371.193231,57.152 360.329231,66.448 346.105231,84.592 C348.793231,73.84 352.265231,65.552 357.977231,54.352 C363.241231,44.048 372.537231,31.84 383.737231,20.416 C381.161231,17.616 374.329231,15.04 369.625231,15.04 C359.433231,26.688 349.241231,43.824 343.193231,59.616 C336.361231,77.2 331.881231,95.568 331.881231,106.096 Z M426.383385,62.752 C423.135385,69.472 418.655385,77.872 415.519385,83.136 C407.455385,96.576 402.079385,102.848 397.711385,103.744 C396.703385,103.408 396.143385,102.624 396.143385,101.056 C396.143385,87.28 410.815385,67.456 422.799385,65.552 C422.463385,62.752 417.423385,57.488 414.399385,56.704 C402.303385,57.376 386.175385,80.224 386.175385,96.912 C386.175385,104.64 389.983385,110.24 395.471385,110.464 C402.415385,109.344 412.271385,98.144 418.319385,84.48 C415.519385,91.76 414.063385,97.808 414.063385,101.952 C414.063385,107.552 416.079385,110.24 420.111385,110.24 C422.351385,110.24 425.599385,109.344 427.391385,108.224 C425.375385,107.104 424.479385,104.192 424.479385,100.048 C424.479385,92.432 428.623385,79.216 434.671385,66.672 C434.783385,65.216 429.519385,62.752 426.383385,62.752 Z M449.317539,65.104 C443.605539,78.88 439.461539,94 439.461539,101.28 C439.461539,106.544 447.973539,112.928 455.365539,113.152 C457.829539,112.928 465.893539,107.552 467.573539,104.976 C467.461539,104.528 467.125539,103.856 466.789539,103.296 C463.653539,105.76 459.509539,107.552 455.029539,108.112 C452.677539,107.776 451.333539,105.984 451.333539,102.624 C451.333539,93.44 455.813539,78.88 463.205539,64.544 C468.357539,64.432 472.949539,63.648 476.533539,62.304 C476.533539,61.072 475.973539,59.84 475.301539,59.168 C472.165539,59.504 469.029539,59.616 466.117539,59.616 C469.813539,53.344 472.613539,48.976 477.093539,43.376 C475.637539,41.696 468.469539,39.344 465.445539,39.344 C462.981539,40.688 456.485539,50.32 452.005539,59.168 C448.981539,59.056 445.397539,58.72 441.477539,58.496 C441.477539,60.512 442.261539,64.208 442.933539,65.104 L449.317539,65.104 Z M490.171693,51.216 C498.795693,45.616 503.947693,35.2 506.411693,21.76 C504.507693,18.064 497.787693,15.152 490.731693,14.704 C491.739693,18.96 492.075693,22.88 492.075693,26.576 C492.075693,34.864 490.171693,41.808 488.379693,46.96 C488.379693,48.528 489.275693,50.432 490.171693,51.216 Z M529.905846,63.424 C529.009846,59.952 520.385846,51.216 517.025846,50.32 C509.185846,52 502.241846,60.624 502.241846,68.576 C502.241846,74.848 505.713846,81.344 505.713846,88.96 C492.721846,89.856 482.641846,99.488 482.641846,110.912 C483.873846,115.056 489.025846,119.312 493.281846,119.648 C505.265846,118.416 512.545846,110.352 512.545846,97.92 C512.545846,96.128 512.433846,95.008 512.433846,93.888 C512.433846,92.208 512.993846,91.984 519.937846,90.416 C520.161846,90.192 520.385846,89.52 520.385846,88.96 C520.385846,88.4 520.385846,88.288 520.273846,88.064 C517.921846,88.064 515.569846,88.176 512.433846,88.288 C512.321846,88.064 512.321846,87.84 512.321846,86.944 C512.321846,72.608 515.569846,64.88 521.505846,64.88 C523.073846,64.88 524.193846,66.448 524.193846,68.576 C524.193846,70.368 522.401846,73.728 522.401846,74.624 C522.513846,75.632 522.961846,76.192 523.857846,76.304 C526.209846,76.304 529.569846,69.136 529.905846,63.424 Z M492.945846,114.496 C491.489846,113.488 490.705846,112.144 490.705846,110.464 C490.705846,105.312 500.337846,95.568 506.161846,94.784 C506.161846,102.512 500.113846,111.584 492.945846,114.496 Z" id="That's"></path>
                <path d="M76.6455388,91.512 C76.4215388,90.616 76.3095388,89.608 76.3095388,86.472 C76.3095388,68.664 88.1815388,28.12 96.6935388,14.568 C97.5895388,40.44 99.7175388,61.496 105.877539,86.472 C107.445539,89.608 113.381539,91.4 120.213539,91.4 C120.661539,91.4 121.221539,91.4 121.669539,91.288 C121.557539,91.176 121.557539,91.064 121.557539,90.952 C121.893539,73.032 136.453539,14.68 150.677539,8.856 C148.997539,5.608 144.181539,2.024 140.933539,1.464 C135.333539,2.136 124.021539,38.984 116.853539,74.936 C112.261539,58.808 111.477539,43.464 111.477539,27.224 C111.477539,19.048 112.037539,11.096 112.709539,7.512 C112.037539,5.496 99.3815388,0.568 95.2375388,0.568 L96.0215388,5.272 C86.1655388,19.272 65.7815388,69.56 65.7815388,83.112 C65.7815388,87.144 68.1335388,88.936 76.6455388,91.512 Z M150.875693,86.92 C168.795693,83.112 181.675693,67.096 181.675693,48.392 C181.675693,41.224 179.771693,37.864 175.739693,37.864 C175.067693,37.864 174.395693,37.976 173.723693,37.976 C171.483693,34.056 169.019693,31.256 166.667693,30.024 C163.195693,30.024 159.163693,31.592 155.131693,34.616 C144.603693,42.344 136.875693,56.792 136.875693,68.776 C136.875693,78.856 142.363693,86.024 150.875693,86.92 Z M156.587693,51.64 C160.283693,46.824 165.547693,42.008 172.043693,40.104 C173.051693,41.672 173.499693,43.8 173.499693,47.608 C173.499693,65.08 163.755693,79.416 150.427693,82.328 C148.971693,81.88 147.515693,77.96 147.515693,74.376 C147.515693,68.44 151.435693,58.472 156.587693,51.64 Z M185.905846,78.408 C185.905846,82.776 187.809846,85.8 192.513846,87.256 C197.217846,80.872 199.345846,76.952 205.057846,69.336 C207.857846,65.752 213.793846,58.36 216.145846,57.24 C215.921846,59.704 215.473846,61.608 213.793846,68.216 C212.897846,71.8 212.561846,74.6 212.561846,78.968 C212.561846,83.112 215.025846,86.136 218.497846,86.136 C221.633846,86.136 230.145846,76.84 235.745846,70.792 C249.521846,56.008 255.793846,47.16 257.249846,30.584 C256.801846,30.248 255.905846,30.024 254.785846,30.024 C252.209846,30.024 248.513846,30.92 247.617846,32.152 C244.817846,46.824 243.473846,52.312 237.761846,61.048 C233.169846,68.104 225.553846,76.84 224.209846,77.4 C226.225846,66.648 229.585846,43.576 234.401846,37.416 C234.065846,35.624 229.697846,34.952 226.785846,34.952 C226.001846,34.952 225.329846,34.952 224.881846,35.064 C221.969846,37.976 220.961846,42.008 220.065846,44.696 C218.833846,48.168 217.937846,50.52 213.233846,54.888 C209.873846,58.024 205.281846,63.624 200.353846,70.12 C202.033846,59.032 203.041846,43.8 211.777846,36.744 C211.217846,35.064 207.297846,33.944 204.049846,33.944 C198.001846,33.944 193.745846,37.976 191.841846,44.92 C188.929846,55.448 185.905846,72.472 185.905846,78.408 Z" id="Now"></path>
                <path d="M2.552,211.472 C8.948,225.084 22.068,232.464 39.944,232.464 C78.976,232.464 113.088,194.252 113.088,151.612 C113.088,120.288 88.324,98.968 53.392,98.968 C25.676,98.968 4.848,112.416 0.584,132.588 C1.896,139.312 6.652,144.068 11.572,145.708 C16.656,128.324 26.824,116.516 40.436,110.94 C35.844,126.356 12.228,189.496 2.552,211.472 Z M60.444,107.168 C84.224,107.168 99.312,120.288 99.312,142.756 C99.312,183.1 69.628,218.196 34.04,218.196 C28.956,218.196 24.364,217.704 21.412,216.72 C21.412,210.488 26.66,195.072 39.124,167.356 C48.964,145.544 59.952,124.224 63.396,119.468 C61.1,117.336 54.376,112.908 44.864,109.464 C49.62,107.988 54.868,107.168 60.444,107.168 Z M172.212,152.104 C167.784,146.528 163.028,143.412 158.108,142.756 C136.46,142.756 111.86,174.408 111.86,201.304 C111.86,214.424 120.716,224.756 135.804,226.396 C146.136,224.1 158.764,214.752 168.604,201.796 C167.784,200.812 166.964,199.992 165.816,199.008 C158.928,206.388 147.612,218.196 135.804,218.196 C129.572,218.196 128.26,210.652 128.26,205.076 C128.26,203.6 128.424,202.124 128.424,200.812 C156.304,189.66 170.572,179 172.212,152.104 Z M160.896,157.516 C160.076,172.44 147.12,185.888 129.736,194.58 C134.984,174.244 148.924,159.156 160.896,157.516 Z M172.864,210.656 C172.864,216.934 174.178,222.482 175.93,223.65 C177.244,224.526 179.434,226.862 179.872,227.884 C180.456,229.198 182.646,230.366 185.274,230.658 C185.128,229.928 185.128,229.782 185.128,226.424 C185.128,214.16 189.508,195.18 197.684,172.404 C207.32,145.686 218.27,125.976 233.454,108.018 C231.848,105.536 221.774,99.696 217.102,98.82 C207.028,111.084 196.516,132.838 184.544,165.542 C177.098,185.982 172.864,202.188 172.864,210.656 Z M207.08078,207.538 C207.08078,218.512 218.79878,223.348 220.65878,223.348 C221.77478,223.348 221.77478,221.674 221.77478,217.21 C221.96078,211.816 224.75078,203.818 227.35478,196.936 C233.67878,180.568 237.02678,167.362 248.37278,154.714 C243.53678,147.46 235.16678,143.368 231.07478,142.438 C219.91478,148.018 214.52078,167.362 213.40478,172.198 C208.56878,194.518 207.08078,203.26 207.08078,207.538 Z M242.60678,126.814 C242.60678,128.86 245.21078,131.278 248.18678,131.836 C250.04678,127.744 263.62478,111.19 269.20478,105.982 C265.48478,100.402 252.46478,92.962 246.69878,92.962 C243.53678,100.96 240.93278,113.05 240.93278,117.328 C240.93278,119.374 241.86278,122.164 243.16478,123.466 C242.79278,124.954 242.60678,126.07 242.60678,126.814 Z M243.647847,191.136 C243.647847,208.356 255.291847,223.444 269.723847,224.756 C277.103847,223.444 290.551847,214.096 297.767847,205.076 C297.767847,204.092 296.947847,202.452 296.127847,201.796 C285.959847,209.34 274.151847,215.08 267.755847,215.9 C263.819847,214.096 261.851847,208.848 261.851847,199.992 C261.851847,186.052 266.935847,172.932 276.283847,162.436 C282.351847,155.712 289.731847,151.12 293.995847,151.12 C296.455847,151.12 297.767847,152.76 297.767847,155.876 C297.767847,161.288 294.159847,167.356 286.779847,174.08 C288.583847,176.704 291.535847,178.508 294.159847,178.508 C300.391847,178.508 306.623847,168.668 306.623847,158.664 C306.623847,148.168 300.227847,142.264 288.911847,142.264 C265.951847,142.264 243.647847,166.372 243.647847,191.136 Z M306.707847,209.012 C306.707847,218.688 317.039847,222.952 318.679847,222.952 C319.663847,222.952 319.663847,221.476 319.663847,217.54 C319.827847,212.784 322.287847,205.732 324.583847,199.664 C330.159847,185.232 333.111847,173.588 343.115847,162.436 C338.851847,156.04 331.471847,152.432 327.863847,151.612 C318.023847,156.532 313.267847,173.588 312.283847,177.852 C308.019847,197.532 306.707847,205.24 306.707847,209.012 Z M338.031847,137.836 C338.031847,139.64 340.327847,141.772 342.951847,142.264 C344.591847,138.656 356.563847,124.06 361.483847,119.468 C358.203847,114.548 346.723847,107.988 341.639847,107.988 C338.851847,115.04 336.555847,125.7 336.555847,129.472 C336.555847,131.276 337.375847,133.736 338.523847,134.884 C338.195847,136.196 338.031847,137.18 338.031847,137.836 Z M359.599847,225.74 C385.839847,220.164 404.699847,196.712 404.699847,169.324 C404.699847,158.828 401.911847,153.908 396.007847,153.908 C395.023847,153.908 394.039847,154.072 393.055847,154.072 C389.775847,148.332 386.167847,144.232 382.723847,142.428 C377.639847,142.428 371.735847,144.724 365.831847,149.152 C350.415847,160.468 339.099847,181.624 339.099847,199.172 C339.099847,213.932 347.135847,224.428 359.599847,225.74 Z M367.963847,174.08 C373.375847,167.028 381.083847,159.976 390.595847,157.188 C392.071847,159.484 392.727847,162.6 392.727847,168.176 C392.727847,193.76 378.459847,214.752 358.943847,219.016 C356.811847,218.36 354.679847,212.62 354.679847,207.372 C354.679847,198.68 360.419847,184.084 367.963847,174.08 Z M452.179847,216.392 C457.263847,219.836 464.807847,222.788 467.759847,222.788 C467.759847,222.788 468.415847,222.624 468.415847,222.132 C468.415847,220 464.807847,216.392 464.807847,207.044 C464.807847,189.824 477.435847,171.456 485.471847,152.268 C483.503847,149.808 475.631847,147.02 469.891847,147.02 C462.511847,154.072 459.067847,163.584 457.099847,168.996 C453.491847,178.672 445.455847,188.676 441.027847,194.744 C432.007847,207.044 427.579847,212.456 424.299847,213.768 C423.971847,213.44 423.151847,212.456 423.151847,210.816 C423.151847,205.076 427.907847,190.152 430.039847,185.232 C439.879847,161.944 448.899847,149.48 450.867847,147.348 C447.587847,143.576 440.043847,142.264 436.271847,142.264 C422.495847,152.268 410.851847,179.984 406.915847,196.548 C405.931847,201.14 405.603847,204.42 405.603847,210.488 C407.407847,218.196 416.591847,222.952 423.479847,223.28 C424.955847,223.116 427.743847,221.148 430.531847,218.196 C434.139847,213.932 445.947847,197.04 447.751847,197.204 C447.259847,198.68 446.931847,200.648 446.931847,203.108 C446.931847,206.88 448.079847,212.948 452.179847,216.392 Z M540.167847,154.728 C538.855847,149.644 526.227847,136.852 521.307847,135.54 C509.827847,138 499.659847,150.628 499.659847,162.272 C499.659847,171.456 504.743847,180.968 504.743847,192.12 C485.719847,193.432 470.959847,207.536 470.959847,224.264 C472.763847,230.332 480.307847,236.564 486.539847,237.056 C504.087847,235.252 514.747847,223.444 514.747847,205.24 C514.747847,202.616 514.583847,200.976 514.583847,199.336 C514.583847,196.876 515.403847,196.548 525.571847,194.252 C525.899847,193.924 526.227847,192.94 526.227847,192.12 C526.227847,191.3 526.227847,191.136 526.063847,190.808 C522.619847,190.808 519.175847,190.972 514.583847,191.136 C514.419847,190.808 514.419847,190.48 514.419847,189.168 C514.419847,168.176 519.175847,156.86 527.867847,156.86 C530.163847,156.86 531.803847,159.156 531.803847,162.272 C531.803847,164.896 529.179847,169.816 529.179847,171.128 C529.343847,172.604 529.999847,173.424 531.311847,173.588 C534.755847,173.588 539.675847,163.092 540.167847,154.728 Z M486.047847,229.512 C483.915847,228.036 482.767847,226.068 482.767847,223.608 C482.767847,216.064 496.871847,201.796 505.399847,200.648 C505.399847,211.964 496.543847,225.248 486.047847,229.512 Z M542.875847,189.168 C542.875847,198.844 547.467847,200.484 552.879847,201.96 C559.931847,162.436 582.235847,125.044 604.703847,106.512 C603.719847,101.1 593.387847,91.752 586.499847,90.276 C573.707847,99.624 542.875847,171.128 542.875847,189.168 Z M539.267847,232.628 C545.827847,232.628 548.123847,222.624 553.207847,217.048 C550.255847,211.8 543.039847,206.716 536.971847,206.716 C532.051847,206.716 529.263847,219.344 529.263847,224.756 C529.263847,227.052 534.183847,232.628 539.267847,232.628 Z" id="Delicious!"></path>
            </g>
        </g>
    </g>
</svg>
